PathFileType	4	(X/Y/Z)	OpenSim_Sub08_CSStiffKnee_Accel.trc
DataRate	CameraRate	NumFrames	NumMarkers	Units	OrigDataRate	OrigDataStartFrame	OrigNumFrames
100	100	31	8	m	100	661	5282
Frame#	Time	torso_imu_offset_imu	pelvis_imu_offset_imu	tibia_r_imu_offset_imu	femur_r_imu_offset_imu	tibia_l_imu_offset_imu	femur_l_imu_offset_imu	toes_r_imu_offset_imu	toes_l_imu_offset_imu
				X1	Y1	Z1	X2	Y2	Z2	X3	Y3	Z3	X4	Y4	Z4	X5	Y5	Z5	X6	Y6	Z6	X7	Y7	Z7	X8		Y8	Z8	

661	6.60000000	10.15401900	1.36396390	6.22422986	10.60526123	-1.08940486	2.39185161	9.53259001	3.27353134	0.29253590	9.75993323	-4.15935224	2.54843953	10.19928478	-2.95200409	-1.02484570	9.79636226	1.87170542	-2.20528071	10.99289788	1.12909273	4.61346994	5.76255037	0.58295256	10.77091843
662	6.61000000	10.25575595	1.27761657	6.31919596	10.43079563	-0.91607462	2.10131535	9.25705615	3.17307093	0.23500615	9.41190201	-4.28582769	2.31332791	10.33116968	-2.51366233	-1.37506326	9.64144498	1.91019471	-2.25245404	11.43015826	1.13512001	4.58943557	5.79433795	0.69878885	10.73918666
663	6.62000000	10.11341934	1.18296331	6.29902194	10.25675876	-0.75428230	2.03215822	8.86672687	2.92080133	0.34196839	9.15888322	-4.65193926	2.29090018	10.10404913	-2.76828484	-1.25745438	9.25446484	2.10291499	-2.26349665	12.60923182	0.77071197	4.62066092	5.53463984	0.85479517	10.96464782
664	6.63000000	10.04435457	1.21735855	6.31616417	10.08067097	-0.71663206	2.06711850	8.57932623	2.54107013	0.22425368	9.01852573	-5.23991266	2.46028823	9.97652156	-3.06397993	-1.04227122	9.12053618	2.45449181	-2.30038249	12.36449208	0.16613485	3.82789539	5.47423070	0.90803320	10.99960043
665	6.64000000	10.07639962	1.30290935	6.40287801	10.07551950	-0.78145682	2.01583303	8.37005259	2.32236603	-0.02649412	8.96882322	-5.65911712	2.69063739	9.95200701	-2.69587607	-0.92456437	9.34041808	2.79016863	-2.42676140	10.65867263	0.09121649	2.49753452	5.86427225	1.28325164	10.96659221
666	6.65000000	9.99560906	1.27838066	6.42863291	10.13267803	-0.86247052	2.01375251	8.10665030	2.34493064	-0.02524219	8.83994250	-5.80768775	2.92440033	10.27135264	-2.43874466	-0.81766842	9.50927463	2.92179667	-2.43839140	9.89817042	0.79819268	1.87892879	6.24806957	0.96713350	10.92461497
667	6.66000000	9.79556915	1.11429276	6.38648446	10.14482988	-1.02436811	2.06138420	7.84390998	2.12046655	-0.11114701	8.62002353	-5.78471838	3.11649015	10.59366441	-2.37226453	-0.99668284	9.88195316	3.01376581	-2.24438126	10.18840195	0.83652128	2.03232418	5.31744273	0.37518236	11.47428252
668	6.67000000	9.57671233	0.96822906	6.28840387	10.13612470	-1.25164031	1.96082634	7.63158554	1.78210603	-0.17222629	8.30983187	-5.43219024	3.28118657	11.14516070	-2.23459809	-0.40390786	10.31535474	3.16098472	-1.91287819	10.69250816	0.20228093	2.19504573	5.02961125	0.48313370	11.47409006
669	6.68000000	9.49488214	0.92666475	6.24889444	10.11638820	-1.52661615	1.75171671	7.44747749	1.62861170	-0.37093160	7.95278873	-4.96234341	3.40257745	11.37313953	-1.73879187	0.50290028	10.29505690	3.40801380	-1.57168546	10.32146502	-0.31719614	2.41143701	6.02157589	0.59032697	10.91160425
670	6.69000000	9.47417687	0.95924058	6.30359573	10.14308839	-1.74330772	1.58153782	7.54387026	1.53537490	-0.90754307	7.75904084	-4.49237023	3.34619438	11.04569116	-1.10671731	0.70525550	10.02423218	4.09587269	-1.14484120	10.46193613	-1.01721761	1.86889483	5.75744494	0.21516193	11.17176695
671	6.70000000	9.35043876	1.04358994	6.27315750	10.09670449	-1.77752297	1.51124637	7.99919235	1.51429843	-1.09002862	7.78017854	-3.88555028	3.24710214	11.15392969	-0.74975739	0.76991636	9.62540152	4.96748007	-0.51244325	7.03973560	-2.37236829	2.73886152	5.50690709	-0.02050943	11.22347419
672	6.71000000	9.15560959	1.08200328	6.21497426	9.96987426	-1.74283916	1.60070221	8.35030409	1.60660374	-1.17450394	7.85900712	-3.33962302	3.13107292	11.12098071	-0.50951864	1.21346868	9.12797911	5.46366217	-0.11566344	6.29691510	-7.60000235	-2.06627892	5.12177795	0.42134004	11.44842841
673	6.72000000	9.16253715	1.11466408	6.12261408	9.98683308	-1.60208150	1.75659291	8.64945792	1.19785259	-1.11788187	7.89056573	-2.85341503	2.87128368	10.95693273	0.01787046	1.21563455	8.85723805	5.71068036	-0.04307149	2.57148548	-7.44108566	-8.57420370	5.15027249	0.50714613	11.37240866
674	6.73000000	9.49707907	1.12922415	6.04569956	10.16213817	-1.18080509	2.13862476	9.28746400	-0.69553774	-0.52367171	8.29026983	-2.69771875	2.55347550	11.18413362	0.81046157	1.11753411	8.86519707	5.94454250	-0.14700960	0.32202259	5.08542338	7.48656509	5.13007022	0.41958820	11.36065670
675	6.74000000	10.07975407	1.09802843	6.15726418	10.40670275	-0.54832378	2.75122603	11.88956398	-1.83822190	1.91083358	9.45151293	-2.97229973	2.17332732	11.97726727	1.58163701	1.15640939	8.96777568	6.05763901	-0.28836249	6.51438742	1.10825539	17.34483169	4.86094302	0.63042608	11.41721966
676	6.75000000	10.80281390	1.00729725	6.32734659	10.92045707	0.38562659	3.46094660	15.44016160	-2.44487654	7.59831751	11.60127194	-3.19754909	2.08935270	12.88138616	2.18952475	1.25755919	9.02940222	5.91775296	-0.34993671	3.89103750	-6.04851357	10.05859352	4.18378133	1.12453547	11.71856055
677	6.76000000	11.49417020	0.81195420	6.47526822	11.68584148	1.44758656	4.29152980	16.29564525	-6.36139857	8.93075151	14.72179543	-3.14417054	2.20958286	13.43832633	2.32386972	1.65227283	9.26180668	5.59052341	-0.44781881	4.02699746	8.00774638	14.08869771	3.88272653	1.93499267	11.96450701
678	6.77000000	12.04665256	0.52880919	6.86324402	12.30561988	2.55497753	5.49008543	15.69140864	-8.10730394	7.04056622	17.44869357	-2.66162524	2.02361298	13.88726953	2.39289398	1.99046698	9.76378292	5.36185703	-0.62438279	10.51724204	8.13868568	16.22983261	4.07496081	2.55168359	11.94571127
679	6.78000000	12.36457345	0.40406227	7.21393009	12.79486536	3.48892042	6.60311123	15.20515606	-5.22888042	7.23715288	18.15067916	-1.93315600	2.37582235	14.62324857	2.96039686	2.30827774	9.95975688	5.00469273	-0.59250691	13.82952913	0.64490978	14.10679371	3.98142524	2.66717421	12.14564240
680	6.79000000	12.35945916	0.33672085	7.18086250	13.10996856	3.72301364	7.06629076	13.99297861	-1.68411112	4.74494016	16.72287928	-1.58218975	3.25851462	15.29137294	3.44330057	2.52572795	10.09264919	4.54993454	-0.25030493	12.90478781	-2.28741793	11.63367817	3.99993062	2.54530081	12.51630575
681	6.80000000	11.97942716	0.06611883	6.99246652	12.48803154	2.87558525	6.95792584	12.06343950	2.53164076	1.59362438	13.84220135	-2.02094811	3.05233117	15.63587240	4.05562649	2.49173210	9.67612088	4.08268112	0.16241965	11.22169827	-2.61527183	9.92021826	3.82918117	2.58713306	12.55190536
682	6.81000000	11.17065483	-0.31522292	6.84588952	10.86213180	0.98620574	6.59017311	9.70888002	4.36146007	0.39359296	10.56063272	-2.83808970	1.80922733	15.61819445	5.32600961	1.75688078	9.75006294	3.14305337	0.67674408	7.72397811	1.50249285	9.84456344	6.16944344	2.53572083	12.50345769
683	6.82000000	10.02773515	-0.76229228	6.59363288	9.19509876	-1.10124683	6.18604658	8.03116715	3.87316358	-2.01471570	8.22706967	-2.50280173	1.36108865	15.04805618	6.73403944	-0.84410833	9.63469775	1.82455729	1.00398364	9.61293154	-4.25950769	10.98218499	8.66035856	1.64484812	11.60572000
684	6.83000000	9.01910732	-1.06165123	6.19404047	7.90923565	-2.87591630	6.00419169	7.66868623	3.92767536	-4.60093139	6.94705824	-0.32811013	2.39732133	14.45158695	5.39756052	-1.54118872	9.52199393	0.50662758	0.82913986	11.43839912	-13.70609407	6.54325010	11.70360731	0.67254782	12.91990794
685	6.84000000	8.43725219	-1.16703793	5.60670376	7.07059403	-4.20308659	5.75699690	7.57376054	2.84690985	-6.44113697	6.12977925	2.11826050	2.61737767	13.76933751	1.48707362	-0.29636618	9.60020003	-0.68588888	0.41879356	5.89603449	-8.74494390	6.24712838	17.91678282	3.79541009	15.45489448
686	6.85000000	8.29509718	-1.30800678	5.17039325	6.58786674	-4.81630598	5.50104710	8.32892735	1.87414873	-7.42979248	5.80840114	3.13893389	1.22252976	12.26205839	-0.82572898	-0.60956333	10.14103059	-1.14269419	-0.18957461	7.77990567	-2.09154583	10.55993465	22.08926727	4.03029731	15.86953512
687	6.86000000	8.33662135	-1.52466356	4.95395950	6.65244150	-4.37685938	5.33481146	9.92218817	1.16242422	-5.69717524	6.87371057	2.25876633	-0.69019719	10.33296169	-2.66118596	-1.00443551	11.34505673	-0.92051349	-0.89940177	9.01252331	-0.89579339	9.88141691	21.47123571	-1.19573144	13.34887154
688	6.87000000	8.37393678	-1.75331047	4.88659913	7.30156587	-2.83091888	5.27565918	11.14238822	1.06138838	-2.22637857	9.63067545	-0.06596658	-2.72536263	8.91105725	-6.56335619	-1.59305552	11.87741198	-0.34251774	-1.44895583	6.20301232	-1.39906436	9.61399870	19.45579151	2.64979709	10.65078499
689	6.88000000	8.90871251	-1.90225080	5.00144537	8.08305653	-0.60292935	5.63844270	11.73331059	1.82809211	1.17089490	11.84088373	-2.79944887	-3.82268516	8.12020058	-11.69728752	-3.11868218	14.09884224	0.08333206	-1.28380040	6.50977840	-1.67948779	8.71563803	7.02032211	9.75321671	20.26213602
690	6.89000000	9.77690093	-1.79404071	5.13612727	9.14962925	1.70726590	6.01321177	11.31238367	0.59256066	2.31624259	11.67153486	-4.32006105	-3.60611260	7.38471054	-15.38318635	-4.69481014	15.80787956	0.02966911	-0.39261832	6.66276784	0.82815688	9.49067055	14.37183516	9.26518893	21.06347719
691	6.90000000	10.38589938	-1.52401684	5.44396929	10.20568585	3.52047737	6.03829420	10.80310285	-0.94989149	1.51102813	10.42339408	-3.55689019	-2.45240371	6.20988125	-16.03302394	-3.85139675	15.29809588	0.30658363	0.28571130	5.92162948	-0.18731722	9.01355441	14.12236110	17.64740819	23.52620597
